<svg width="18" height="18" viewBox="0 0 18 18" fill="none" xmlns="http://www.w3.org/2000/svg">
  <g clip-path="url(#clip0_702_32808)">
    <path d="M1.5 3.5H16.5C16.9142 3.5 17.25 3.83579 17.25 4.25V13.75C17.25 14.1642 16.9142 14.5 16.5 14.5H1.5C1.08579 14.5 0.75 14.1642 0.75 13.75V4.25C0.75 3.83579 1.08579 3.5 1.5 3.5ZM16.5 4.25H1.5V5.85L9 10.05L16.5 5.85V4.25ZM16.5 7.2L9.4 11.225C9.21161 11.3189 9.01161 11.3189 8.82321 11.225L1.5 7.2V13.75H16.5V7.2Z" fill="#757185" stroke="#757185" stroke-width="0.5"/>
  </g>
  <defs>
    <clipPath id="clip0_702_32808">
      <rect width="17.1429" height="17.1429" fill="white" transform="translate(0.428711 0.428711)"/>
    </clipPath>
  </defs>
</svg>
