<svg xmlns="http://www.w3.org/2000/svg" x="0px" y="0px" width="100" height="100" viewBox="0,0,256,256" style="fill:#737373;">
  <g fill="#757185" fill-rule="nonzero"  stroke="none" stroke-width="1" stroke-linecap="butt" stroke-linejoin="miter" stroke-miterlimit="10" font-family="none" font-weight="none" font-size="none" text-anchor="none" style="mix-blend-mode: normal">
    <g transform="scale(5.33333,5.33333)">
      <path d="M23.99609,2.00391c-12.144,0 -22.00195,9.856 -22.00195,22c0,4.1 1.12313,7.93761 3.07813,11.22461l-3.07812,10.77539l11.23828,-2.81055c3.183,1.789 6.85467,2.81055 10.76367,2.81055c12.144,0 22,-9.856 22,-22c0,-12.144 -9.856,-22 -22,-22zM23.99609,3.00391c11.59,0 21.00195,9.409 21.00195,21c0,11.592 -9.41195,20.999 -21.00195,21c-3.733,0 -7.23448,-0.97269 -10.27148,-2.67969c-0.223,-0.126 -0.48542,-0.16261 -0.73242,-0.09961l-9.56055,2.38867l2.60352,-9.10937c0.074,-0.264 0.03748,-0.54816 -0.10352,-0.78516c-1.865,-3.136 -2.93555,-6.79884 -2.93555,-10.71484c0,-11.591 9.408,-21 21,-21zM23.99609,6.00391c-9.936,0 -18.00195,8.067 -18.00195,18c0,3.361 0.91863,6.49469 2.51563,9.17969l0.88281,1.48438l-1.65039,5.77539l6.06445,-1.51562l1.38672,0.7793c2.6,1.462 5.59774,2.29688 8.80274,2.29688c9.934,0 18,-8.065 18,-18c0,-9.933 -8.065,-18 -18,-18zM16.33203,13.00391l1.03711,0.01172c0.386,0.016 0.8138,0.03686 1.2168,1.00586c0.485,1.158 1.53687,4.04199 1.67187,4.33399c0.134,0.292 0.22592,0.63544 0.04492,1.02344c-0.18,0.388 -0.27002,0.63166 -0.54102,0.97266c-0.27,0.341 -0.56745,0.76149 -0.81445,1.02148c-0.272,0.289 -0.55233,0.60441 -0.23633,1.19141c0.316,0.583 1.40272,2.49506 3.01172,4.03906c2.068,1.99 3.81156,2.60839 4.35156,2.90039c0.542,0.29 0.85783,0.24256 1.17383,-0.14844c0.316,-0.391 1.35189,-1.70311 1.71289,-2.28711c0.36,-0.584 0.72175,-0.48797 1.21875,-0.29297c0.498,0.194 3.15822,1.60839 3.69922,1.90039c0.542,0.29 0.90206,0.43469 1.03906,0.67969c0.133,0.244 0.13259,1.41334 -0.31641,2.77734c-0.454,1.361 -2.6593,2.67549 -3.6543,2.77148c-0.993,0.099 -1.92209,0.48497 -6.49609,-1.45703c-5.502,-2.343 -8.97509,-8.42155 -9.24609,-8.81055c-0.27,-0.39 -2.21094,-3.16706 -2.21094,-6.03906c0,-2.87 1.39853,-4.28023 1.89453,-4.86523c0.497,-0.585 1.08236,-0.72852 1.44336,-0.72852z"></path>
    </g>
  </g>
</svg>
